# xmcd
#
# Track frame offsets:
#	179
#	12239
#	25688
#	33241
#	44699
#	54770
#	64516
#	72585
#	80591
#	89686
#	105784
#
# Disc length: 1591 seconds
# Revision: 1
# Processed by: cddbd v1.5.2PL0 Copyright (c) Steve Scherf et al.
# Submitted via: dBpowerAMP V12.0
#
DISCID=8306350b
DTITLE=Johnny Cash - Complete Columbia Album Collection, Disc 25 [I Walk the Line OST]
DYEAR=1970
DGENRE=Country
TTITLE0=Flesh and Blood
TTITLE1=I Walk the Line
TTITLE2=Hungry
TTITLE3=This Town
TTITLE4=This Side of the Law
TTITLE5=Flesh and Blood (instrumental)
TTITLE6='Cause I Love You
TTITLE7='Cause I Love You [instrumental]
TTITLE8=The World's Gonna Fall on You
TTITLE9=Face of Despair
TTITLE10=Standing on the Promises/Amazing Grace
EXTD=
EXTT0=
EXTT1=
EXTT2=
EXTT3=
EXTT4=
EXTT5=
EXTT6=
EXTT7=
EXTT8=
EXTT9=
EXTT10=
PLAYORDER=
